<svg xmlns="http://www.w3.org/2000/svg" version="1.1" xmlns:xlink="http://www.w3.org/1999/xlink" xmlns:svgjs="http://svgjs.dev/svgjs" width="1500" height="939" viewBox="0 0 1500 939"><g transform="matrix(1,0,0,1,-0.9090909090909918,-1.5145161290323017)"><svg viewBox="0 0 396 248" data-background-color="#ffffff" preserveAspectRatio="xMidYMid meet" height="939" width="1500" xmlns="http://www.w3.org/2000/svg" xmlns:xlink="http://www.w3.org/1999/xlink"><g id="tight-bounds" transform="matrix(1,0,0,1,0.2400000000000091,0.4000000000000057)"><svg viewBox="0 0 395.52 247.2" height="247.2" width="395.52"><g><svg></svg></g><g><svg viewBox="0 0 395.52 247.2" height="247.2" width="395.52"><mask id="f5357172-6d56-4f29-b8e8-c0e6383ee299"><rect width="640" height="400" fill="white"></rect><g transform="matrix(1,0,0,1,78.80661654135339,107.22462057508413)"><svg viewBox="0 0 237.9067669172932 32.750758849831726" height="32.750758849831726" width="237.9067669172932"><g><svg viewBox="0 0 237.9067669172932 32.750758849831726" height="32.750758849831726" width="237.9067669172932"><g><svg viewBox="0 0 237.9067669172932 32.750758849831726" height="32.750758849831726" width="237.9067669172932"><g><svg viewBox="0 0 237.9067669172932 32.750758849831726" height="32.750758849831726" width="237.9067669172932"><g id="SvgjsG1466"><svg viewBox="0 0 237.9067669172932 32.750758849831726" height="32.750758849831726" width="237.9067669172932" id="SvgjsSvg1465"><g><svg viewBox="0 0 237.9067669172932 32.750758849831726" height="32.750758849831726" width="237.9067669172932"><g transform="matrix(1,0,0,1,0,0)"><svg width="237.9067669172932" viewBox="-2.3899999999999997 -43.06 339.12 47.550000000000004" height="32.750758849831726" data-palette-color="#fbb04b"><path d="M28.37 0L19.85 0Q20.17-1.54 20.17-2.45 20.17-3.37 20.13-3.83 20.09-4.3 20.03-4.82 19.97-5.35 19.89-5.99 19.8-6.64 19.73-7.5L19.73-7.5Q19.17-13.33 15.75-17.09L15.75-17.09Q14.23-18.75 12.48-19.62 10.72-20.48 9.58-20.48 8.45-20.48 7.84-20.34L7.84-20.34Q6.47-16.24 6.47-11.77L6.47-11.77Q6.47-7.81 6.88-5.86L6.88-5.86Q7.54-2.93 8.91 0.02L8.91 0.02 1.61 0.02Q2.2-1.44 2.2-6.14 2.2-10.84 2.91-14.93 3.61-19.02 4.75-22.22 5.88-25.42 7.29-27.82 8.69-30.22 10.1-32.02 11.5-33.81 12.74-35.1 13.99-36.38 14.82-37.35L14.82-37.35 22.51-37.35Q21.46-36.16 21.46-34.01L21.46-34.01Q21.46-33.03 21.78-30.81L21.78-30.81 22.39-26.37Q25.73-3.32 28.37 0L28.37 0ZM8.84-22.92L8.84-22.92Q9.79-23.29 10.84-23.29 11.89-23.29 12.73-23.14 13.57-23 14.4-22.66L14.4-22.66Q16.19-21.97 17.38-20.48L17.38-20.48Q16.19-26.76 15.92-28.15L15.92-28.15 15.06-32.42 13.67-30.76Q10.74-27.25 8.84-22.92ZM54.03-32.01L54.03-32.01Q54.03-27.91 48.02-25.27L48.02-25.27Q53-24.34 54.51-20.75L54.51-20.75Q55-19.56 55-17.59 55-15.63 54.43-13.34 53.85-11.06 52.62-9.05 51.39-7.03 49.48-5.37 47.58-3.71 44.92-2.51L44.92-2.51Q39.33 0 31.1 0L31.1 0Q31.88-1.86 32.02-3.1 32.15-4.35 32.25-5.76L32.25-5.76Q32.44-8.64 32.44-13.5L32.44-13.5Q32.44-19.38 32.25-24.24L32.25-24.24 31.98-30.96Q31.88-33.5 31.54-34.5L31.54-34.5Q31-36.08 29.78-37.35L29.78-37.35 42.7-37.35Q48.61-37.35 51.24-36.18L51.24-36.18Q54.03-34.96 54.03-32.01ZM38.13-19.36L38.13-19.36 38.16-6.96Q38.16-5.57 38.46-4.86 38.77-4.15 39.69-4.15L39.69-4.15Q43.45-4.15 45.97-7.71L45.97-7.71Q48.56-11.38 48.56-17.24L48.56-17.24Q48.56-20.14 47.26-21.56L47.26-21.56Q45.55-23.44 41.14-23.44L41.14-23.44Q40.13-23.44 39.55-23.35 38.96-23.27 38.64-22.88L38.64-22.88Q38.13-22.24 38.13-19.36ZM46.2-27.83Q46.95-28.56 47.26-29.39 47.58-30.22 47.58-30.94 47.58-31.67 47.37-32.4 47.17-33.13 46.56-33.69L46.56-33.69Q45.19-34.91 41.87-34.91L41.87-34.91Q39.35-34.91 38.86-34.41 38.38-33.91 38.25-33.08 38.13-32.25 38.13-30.94 38.13-29.64 38.21-28.77 38.28-27.91 38.6-27.32L38.6-27.32Q39.21-26.12 41.1-26.12 42.99-26.12 44.22-26.61 45.46-27.1 46.2-27.83ZM79.41-39.06L79.41-39.06Q80.12-38.06 80.12-36 80.12-33.94 79.99-32.65 79.85-31.37 79.58-30.18L79.58-30.18Q79-27.49 77.95-26.12L77.95-26.12Q77.05-30.83 75.61-32.86L75.61-32.86Q74.09-34.91 71.66-34.91 69.23-34.91 67.87-33.98 66.5-33.06 65.77-31.54L65.77-31.54Q64.55-29.03 64.55-24.13 64.55-19.24 65.66-15.17 66.77-11.11 68.82-8.18L68.82-8.18Q73.14-1.95 80.07-1.95L80.07-1.95Q79.98-0.85 78.93-0.05L78.93-0.05Q78.61 0.2 78.24 0.24L78.24 0.24Q69.38 0.24 63.79-6.27L63.79-6.27Q57.86-13.21 57.86-25.17L57.86-25.17Q57.86-31.42 61.52-34.57L61.52-34.57Q64.77-37.35 70.41-37.35L70.41-37.35 74.48-37.3Q77.36-37.3 78.54-38.13L78.54-38.13Q79.02-38.5 79.41-39.06ZM111.24-23.19L111.24-23.19Q108.41-23.19 108.41-19.85L108.41-19.85Q108.41-5.98 108.88-3.52L108.88-3.52Q109.15-2.03 109.56-1.29L109.56-1.29 110.29 0 101.63 0Q102.41-1.86 102.54-3.1 102.68-4.35 102.77-5.76L102.77-5.76Q102.97-8.64 102.97-13.5L102.97-13.5Q102.97-19.38 102.77-24.24L102.77-24.24 102.5-30.96Q102.41-33.5 102.07-34.5L102.07-34.5Q101.53-36.08 100.31-37.35L100.31-37.35 113.22-37.35Q119.13-37.35 121.77-36.18L121.77-36.18Q124.55-34.96 124.55-32.01L124.55-32.01Q124.55-29.42 122.62-27.15L122.62-27.15Q120.82-25.05 117.89-23.8L117.89-23.8Q118.25-14.43 123.77-5.81L123.77-5.81Q126.14-2.08 128.6 0L128.6 0 119.45 0Q117.06-3.27 115.03-13.26L115.03-13.26Q114.35-16.72 114.14-19.02 113.93-21.31 113.8-21.79 113.66-22.27 113.37-22.56L113.37-22.56Q112.78-23.19 111.24-23.19ZM116.87-27.55Q117.54-28.27 117.82-29.1 118.11-29.93 118.11-30.7 118.11-31.47 117.9-32.24 117.69-33.01 117.08-33.59L117.08-33.59Q115.74-34.91 112.39-34.91L112.39-34.91Q111.15-34.91 110.38-34.81 109.61-34.72 109.17-34.28L109.17-34.28Q108.41-33.54 108.41-30.54L108.41-30.54Q108.41-27.91 108.97-27.17L108.97-27.17Q109.98-25.88 112-25.88 114.03-25.88 115.11-26.35 116.2-26.83 116.87-27.55ZM146.59-8.3L146.59-8.3Q147.47-7.71 147.47-6.26 147.47-4.81 147.08-3.71 146.69-2.61 145.72-1.66L145.72-1.66Q143.52 0.49 139.03 0.49L139.03 0.49Q133.8 0.49 131.07-3.37L131.07-3.37Q128.65-6.81 128.65-12.67L128.65-12.67Q128.65-18.58 131.92-21.95L131.92-21.95Q135.02-25.15 140.32-25.15L140.32-25.15Q144.01-25.15 146.08-23L146.08-23Q147.72-21.29 147.72-19.06 147.72-16.82 146.85-15.03 145.98-13.23 144.3-11.94L144.3-11.94Q140.83-9.25 134.61-9.11L134.61-9.11Q135.12-4.2 137.68-2.54L137.68-2.54Q138.61-1.95 140.15-1.95 141.69-1.95 143.42-3.56 145.15-5.18 146.59-8.3ZM134.46-12.18L134.46-11.43Q142.18-11.94 142.18-18.9L142.18-18.9Q142.18-21.51 140.61-22.41L140.61-22.41Q140.08-22.71 139.2-22.71 138.32-22.71 137.43-22.17 136.54-21.63 135.88-20.41L135.88-20.41Q134.46-17.75 134.46-12.18L134.46-12.18ZM168.17-26.1L168.17-26.1Q168.83-24.63 168.83-23.14 168.83-21.66 168.7-20.68 168.56-19.7 168.3-18.8L168.3-18.8Q167.69-16.75 166.56-15.65L166.56-15.65Q165.81-19.43 164.91-20.56 164.02-21.68 163.13-22.07 162.24-22.46 161.24-22.46 160.24-22.46 159.6-22.27 158.97-22.07 158.51-21.7L158.51-21.7Q157.46-20.9 157.46-19.87 157.46-18.85 157.97-18.1 158.48-17.36 159.32-16.71 160.17-16.06 161.24-15.45L161.24-15.45 163.44-14.21Q166.27-12.62 167.32-11.57L167.32-11.57Q169.39-9.5 169.39-7.2L169.39-7.2Q169.39-4.2 167.34-2.15L167.34-2.15Q164.76 0.49 159.58 0.49L159.58 0.49Q154.87 0.49 152.5-1.71L152.5-1.71Q151.82-2.34 151.52-2.98L151.52-2.98Q151.72-4.81 153.16-6.42L153.16-6.42Q154.55-7.98 155.87-8.23L155.87-8.23Q155.77-7.91 155.77-7.28 155.77-6.64 156.14-5.7 156.5-4.76 157.19-3.96L157.19-3.96Q158.73-2.1 160.65-2.1 162.58-2.1 163.49-2.98 164.39-3.86 164.39-4.98 164.39-6.1 163.88-6.86 163.36-7.62 162.52-8.28 161.68-8.94 160.61-9.55L160.61-9.55 158.41-10.79Q155.6-12.45 154.55-13.62L154.55-13.62Q152.45-15.97 152.45-18.73L152.45-18.73Q152.45-21.63 154.89-23.44L154.89-23.44Q157.21-25.15 160.68-25.15L160.68-25.15 164.98-24.85Q166.54-24.85 167.15-25.23 167.76-25.61 168.17-26.1ZM182.04-34.42L182.04-34.42Q181.53-32.54 181.53-29.92 181.53-27.29 181.64-26.56 181.75-25.83 181.99-25.39L181.99-25.39Q182.45-24.66 183.8-24.66L183.8-24.66 190.34-24.66Q190.34-23.29 189.68-22.56L189.68-22.56Q188.48-21.24 186.75-21.24L186.75-21.24Q185.9-21.24 185.24-21.48L185.24-21.48Q184.04-21.97 183.38-21.97 182.72-21.97 182.31-21.72 181.89-21.46 181.65-20.97L181.65-20.97Q181.21-20.09 181.21-17.14 181.21-14.18 181.39-11.08 181.57-7.98 182.31-5.9 183.04-3.81 184.53-2.76 186.02-1.71 188.63-1.71L188.63-1.71Q188.63-0.95 187.6 0.1L187.6 0.1Q187.34 0.39 187.14 0.49L187.14 0.49Q182.82 0.49 180.67-0.54L180.67-0.54Q178.21-1.76 177.16-4.88L177.16-4.88Q176.11-8.06 176.11-14.28L176.11-14.28Q176.11-19.73 175.81-20.72 175.52-21.7 175.28-22.02L175.28-22.02Q174.98-22.39 173.86-22.92L173.86-22.92Q175.37-24.07 176.86-27.2L176.86-27.2 178.08-29.76Q179.38-32.69 180.29-33.56 181.21-34.42 182.04-34.42ZM211.06-13.04L211.06-13.04 210.99-8.35Q210.99-3.98 211.8-2.39L211.8-2.39Q212.28-1.44 212.94-0.93L212.94-0.93 214.09 0 207.01 0 206.25-2.83Q203.5 0.49 198.39 0.49L198.39 0.49Q195.49 0.49 193.71-1.46L193.71-1.46Q192.14-3.22 192.14-5.62 192.14-8.01 193.28-9.79 194.41-11.57 196.27-12.74L196.27-12.74Q199.93-15.01 205.47-15.11L205.47-15.11 205.47-15.38Q205.47-21.31 203.64-22.34L203.64-22.34Q202.98-22.71 201.95-22.71 200.91-22.71 199.88-22.02 198.86-21.34 198.03-20.26L198.03-20.26Q196.37-18.09 195.66-15.14L195.66-15.14Q193.49-16.43 193.49-20.09L193.49-20.09Q193.49-21.58 193.88-23.44L193.88-23.44Q194.8-23.44 195.63-23.71L195.63-23.71 197.51-24.29Q200.27-25.15 202.91-25.15 205.55-25.15 207.12-24.37 208.7-23.58 209.57-22.05L209.57-22.05Q211.06-19.43 211.06-13.04ZM197.42-5.13Q197.42-3.61 198.11-2.78 198.81-1.95 199.86-1.95 200.91-1.95 201.88-2.5 202.86-3.05 203.64-4L203.64-4Q205.47-6.18 205.47-9.11L205.47-9.11 205.47-12.72Q202.06-12.4 199.83-10.45L199.83-10.45Q197.42-8.35 197.42-5.13L197.42-5.13ZM237.72-23.54L237.72-22.36 237.36-11.45Q237.36-4.79 238.53-2.29L238.53-2.29Q238.94-1.39 239.99 0L239.99 0 233.21 0Q232.64-1.66 232.47-4.2L232.47-4.2Q229.64 0.49 225.17 0.49L225.17 0.49Q222.1 0.49 220.46-1.81L220.46-1.81Q218.85-4.03 218.85-7.91L218.85-7.91 218.85-11.21Q218.85-12.3 218.85-13.45L218.85-13.45 218.8-15.67Q218.78-17.8 218.67-18.98 218.56-20.17 218.42-20.96 218.29-21.75 218.09-22.38 217.9-23 217.65-23.54L217.65-23.54 217.12-24.66 224.17-24.66Q224.2-24.27 224.2-23.93L224.2-23.93 224.2-23.22Q224.2-23.22 223.78-10.96L223.78-10.96Q223.78-7.37 224.25-6.08 224.71-4.79 225.36-4.22 226-3.66 227.08-3.66L227.08-3.66Q229.98-3.66 231.79-6.84L231.79-6.84Q232.28-7.74 232.59-8.67L232.59-8.67Q232.64-10.03 232.64-11.77L232.64-11.77Q232.64-20.68 231.33-23.54L231.33-23.54 230.79-24.66 237.75-24.66Q237.72-24.05 237.72-23.54L237.72-23.54ZM252.71 0L245.51 0Q246.63-3.86 246.63-13.26L246.63-13.26Q246.63-19.95 245.56-22.39L245.56-22.39Q245.12-23.39 243.99-24.66L243.99-24.66 252.66-24.66Q252.22-23.12 251.95-20.43L251.95-20.43Q254.25-23.32 258.35-24.51L258.35-24.51Q260.11-25.02 260.91-26.12L260.91-26.12Q261.72-24.19 261.72-22.8 261.72-21.41 261.57-20.23 261.43-19.04 261.13-17.92L261.13-17.92Q260.5-15.5 259.45-14.16L259.45-14.16Q258.54-18.92 256.64-19.73L256.64-19.73Q254.44-20.68 252.34-17.14L252.34-17.14Q251.9-16.41 251.61-15.58L251.61-15.58Q251.59-15.01 251.59-14.43 251.59-13.84 251.59-13.26L251.59-13.26Q251.59-3.86 252.71 0L252.71 0ZM283.15-13.04L283.15-13.04 283.08-8.35Q283.08-3.98 283.88-2.39L283.88-2.39Q284.37-1.44 285.03-0.93L285.03-0.93 286.18 0 279.1 0 278.34-2.83Q275.58 0.49 270.48 0.49L270.48 0.49Q267.58 0.49 265.79-1.46L265.79-1.46Q264.23-3.22 264.23-5.62 264.23-8.01 265.37-9.79 266.5-11.57 268.36-12.74L268.36-12.74Q272.02-15.01 277.56-15.11L277.56-15.11 277.56-15.38Q277.56-21.31 275.73-22.34L275.73-22.34Q275.07-22.71 274.03-22.71 272.99-22.71 271.97-22.02 270.94-21.34 270.11-20.26L270.11-20.26Q268.45-18.09 267.75-15.14L267.75-15.14Q265.57-16.43 265.57-20.09L265.57-20.09Q265.57-21.58 265.96-23.44L265.96-23.44Q266.89-23.44 267.72-23.71L267.72-23.71 269.6-24.29Q272.36-25.15 275-25.15 277.63-25.15 279.21-24.37 280.78-23.58 281.66-22.05L281.66-22.05Q283.15-19.43 283.15-13.04ZM269.5-5.13Q269.5-3.61 270.2-2.78 270.9-1.95 271.95-1.95 272.99-1.95 273.97-2.5 274.95-3.05 275.73-4L275.73-4Q277.56-6.18 277.56-9.11L277.56-9.11 277.56-12.72Q274.14-12.4 271.92-10.45L271.92-10.45Q269.5-8.35 269.5-5.13L269.5-5.13ZM297.06 0L290.06 0Q291.18-3.86 291.18-13.26L291.18-13.26Q291.18-19.95 290.01-22.39L290.01-22.39Q289.72-23 289.35-23.54L289.35-23.54 288.54-24.66 297.02-24.66Q296.65-23.44 296.53-22.36L296.53-22.36 296.33-20.61Q299.29-25.15 303.85-25.15L303.85-25.15Q306.81-25.15 308.47-22.85L308.47-22.85Q310.08-20.61 310.08-16.77L310.08-16.77 310.08-14.16Q310.08-7.45 310.2-5.96 310.32-4.47 310.39-3.69 310.47-2.91 310.57-2.29L310.57-2.29Q310.74-1.15 311.08 0L311.08 0 303.93 0Q305.05-3.86 305.05-13.26L305.05-13.26Q305.05-17.02 304.57-18.41 304.1-19.8 303.44-20.4 302.78-21 301.7-21L301.7-21Q299.73-21 298.11-19.43L298.11-19.43Q296.72-18.09 295.99-16.02L295.99-16.02Q295.94-15.36 295.94-14.65L295.94-14.65 295.94-13.26Q295.94-3.86 297.06 0L297.06 0ZM324.43-34.42L324.43-34.42Q323.92-32.54 323.92-29.92 323.92-27.29 324.03-26.56 324.14-25.83 324.38-25.39L324.38-25.39Q324.85-24.66 326.19-24.66L326.19-24.66 332.73-24.66Q332.73-23.29 332.07-22.56L332.07-22.56Q330.88-21.24 329.14-21.24L329.14-21.24Q328.29-21.24 327.63-21.48L327.63-21.48Q326.43-21.97 325.77-21.97 325.11-21.97 324.7-21.72 324.28-21.46 324.04-20.97L324.04-20.97Q323.6-20.09 323.6-17.14 323.6-14.18 323.78-11.08 323.97-7.98 324.7-5.9 325.43-3.81 326.92-2.76 328.41-1.71 331.02-1.71L331.02-1.71Q331.02-0.95 330 0.1L330 0.1Q329.73 0.39 329.53 0.49L329.53 0.49Q325.21 0.49 323.06-0.54L323.06-0.54Q320.6-1.76 319.55-4.88L319.55-4.88Q318.5-8.06 318.5-14.28L318.5-14.28Q318.5-19.73 318.2-20.72 317.91-21.7 317.67-22.02L317.67-22.02Q317.37-22.39 316.25-22.92L316.25-22.92Q317.77-24.07 319.25-27.2L319.25-27.2 320.48-29.76Q321.77-32.69 322.68-33.56 323.6-34.42 324.43-34.42Z" opacity="1" transform="matrix(1,0,0,1,0,0)" fill="black" class="wordmark-text-0" id="SvgjsPath1464" stroke-width="7" stroke="black" stroke-linejoin="round"></path></svg></g></svg></g></svg></g></svg></g><g></g></svg></g></svg></g></svg></g></mask><g transform="matrix(1,0,0,1,78.80661654135339,107.22462057508413)"><svg viewBox="0 0 237.9067669172932 32.750758849831726" height="32.750758849831726" width="237.9067669172932"><g><svg viewBox="0 0 237.9067669172932 32.750758849831726" height="32.750758849831726" width="237.9067669172932"><g><svg viewBox="0 0 237.9067669172932 32.750758849831726" height="32.750758849831726" width="237.9067669172932"><g><svg viewBox="0 0 237.9067669172932 32.750758849831726" height="32.750758849831726" width="237.9067669172932"><g id="textblocktransform"><svg viewBox="0 0 237.9067669172932 32.750758849831726" height="32.750758849831726" width="237.9067669172932" id="textblock"><g><svg viewBox="0 0 237.9067669172932 32.750758849831726" height="32.750758849831726" width="237.9067669172932"><g transform="matrix(1,0,0,1,0,0)"><svg width="237.9067669172932" viewBox="-2.3899999999999997 -43.06 339.12 47.550000000000004" height="32.750758849831726" data-palette-color="#fbb04b"><path d="M28.37 0L19.85 0Q20.17-1.54 20.17-2.45 20.17-3.37 20.13-3.83 20.09-4.3 20.03-4.82 19.97-5.35 19.89-5.99 19.8-6.64 19.73-7.5L19.73-7.5Q19.17-13.33 15.75-17.09L15.75-17.09Q14.23-18.75 12.48-19.62 10.72-20.48 9.58-20.48 8.45-20.48 7.84-20.34L7.84-20.34Q6.47-16.24 6.47-11.77L6.47-11.77Q6.47-7.81 6.88-5.86L6.88-5.86Q7.54-2.93 8.91 0.02L8.91 0.02 1.61 0.02Q2.2-1.44 2.2-6.14 2.2-10.84 2.91-14.93 3.61-19.02 4.75-22.22 5.88-25.42 7.29-27.82 8.69-30.22 10.1-32.02 11.5-33.81 12.74-35.1 13.99-36.38 14.82-37.35L14.82-37.35 22.51-37.35Q21.46-36.16 21.46-34.01L21.46-34.01Q21.46-33.03 21.78-30.81L21.78-30.81 22.39-26.37Q25.73-3.32 28.37 0L28.37 0ZM8.84-22.92L8.84-22.92Q9.79-23.29 10.84-23.29 11.89-23.29 12.73-23.14 13.57-23 14.4-22.66L14.4-22.66Q16.19-21.97 17.38-20.48L17.38-20.48Q16.19-26.76 15.92-28.15L15.92-28.15 15.06-32.42 13.67-30.76Q10.74-27.25 8.84-22.92ZM54.03-32.01L54.03-32.01Q54.03-27.91 48.02-25.27L48.02-25.27Q53-24.34 54.51-20.75L54.51-20.75Q55-19.56 55-17.59 55-15.63 54.43-13.34 53.85-11.06 52.62-9.05 51.39-7.03 49.48-5.37 47.58-3.71 44.92-2.51L44.92-2.51Q39.33 0 31.1 0L31.1 0Q31.88-1.86 32.02-3.1 32.15-4.35 32.25-5.76L32.25-5.76Q32.44-8.64 32.44-13.5L32.44-13.5Q32.44-19.38 32.25-24.24L32.25-24.24 31.98-30.96Q31.88-33.5 31.54-34.5L31.54-34.5Q31-36.08 29.78-37.35L29.78-37.35 42.7-37.35Q48.61-37.35 51.24-36.18L51.24-36.18Q54.03-34.96 54.03-32.01ZM38.13-19.36L38.13-19.36 38.16-6.96Q38.16-5.57 38.46-4.86 38.77-4.15 39.69-4.15L39.69-4.15Q43.45-4.15 45.97-7.71L45.97-7.71Q48.56-11.38 48.56-17.24L48.56-17.24Q48.56-20.14 47.26-21.56L47.26-21.56Q45.55-23.44 41.14-23.44L41.14-23.44Q40.13-23.44 39.55-23.35 38.96-23.27 38.64-22.88L38.64-22.88Q38.13-22.24 38.13-19.36ZM46.2-27.83Q46.95-28.56 47.26-29.39 47.58-30.22 47.58-30.94 47.58-31.67 47.37-32.4 47.17-33.13 46.56-33.69L46.56-33.69Q45.19-34.91 41.87-34.91L41.87-34.91Q39.35-34.91 38.86-34.41 38.38-33.91 38.25-33.08 38.13-32.25 38.13-30.94 38.13-29.64 38.21-28.77 38.28-27.91 38.6-27.32L38.6-27.32Q39.21-26.12 41.1-26.12 42.99-26.12 44.22-26.61 45.46-27.1 46.2-27.83ZM79.41-39.06L79.41-39.06Q80.12-38.06 80.12-36 80.12-33.94 79.99-32.65 79.85-31.37 79.58-30.18L79.58-30.18Q79-27.49 77.95-26.12L77.95-26.12Q77.05-30.83 75.61-32.86L75.61-32.86Q74.09-34.91 71.66-34.91 69.23-34.91 67.87-33.98 66.5-33.06 65.77-31.54L65.77-31.54Q64.55-29.03 64.55-24.13 64.55-19.24 65.66-15.17 66.77-11.11 68.82-8.18L68.82-8.18Q73.14-1.95 80.07-1.95L80.07-1.95Q79.98-0.85 78.93-0.05L78.93-0.05Q78.61 0.2 78.24 0.24L78.24 0.24Q69.38 0.24 63.79-6.27L63.79-6.27Q57.86-13.21 57.86-25.17L57.86-25.17Q57.86-31.42 61.52-34.57L61.52-34.57Q64.77-37.35 70.41-37.35L70.41-37.35 74.48-37.3Q77.36-37.3 78.54-38.13L78.54-38.13Q79.02-38.5 79.41-39.06ZM111.24-23.19L111.24-23.19Q108.41-23.19 108.41-19.85L108.41-19.85Q108.41-5.98 108.88-3.52L108.88-3.52Q109.15-2.03 109.56-1.29L109.56-1.29 110.29 0 101.63 0Q102.41-1.86 102.54-3.1 102.68-4.35 102.77-5.76L102.77-5.76Q102.97-8.64 102.97-13.5L102.97-13.5Q102.97-19.38 102.77-24.24L102.77-24.24 102.5-30.96Q102.41-33.5 102.07-34.5L102.07-34.5Q101.53-36.08 100.31-37.35L100.31-37.35 113.22-37.35Q119.13-37.35 121.77-36.18L121.77-36.18Q124.55-34.96 124.55-32.01L124.55-32.01Q124.55-29.42 122.62-27.15L122.62-27.15Q120.82-25.05 117.89-23.8L117.89-23.8Q118.25-14.43 123.77-5.81L123.77-5.81Q126.14-2.08 128.6 0L128.6 0 119.45 0Q117.06-3.27 115.03-13.26L115.03-13.26Q114.35-16.72 114.14-19.02 113.93-21.31 113.8-21.79 113.66-22.27 113.37-22.56L113.37-22.56Q112.78-23.19 111.24-23.19ZM116.87-27.55Q117.54-28.27 117.82-29.1 118.11-29.93 118.11-30.7 118.11-31.47 117.9-32.24 117.69-33.01 117.08-33.59L117.08-33.59Q115.74-34.91 112.39-34.91L112.39-34.91Q111.15-34.91 110.38-34.81 109.61-34.72 109.17-34.28L109.17-34.28Q108.41-33.54 108.41-30.54L108.41-30.54Q108.41-27.91 108.97-27.17L108.97-27.17Q109.98-25.88 112-25.88 114.03-25.88 115.11-26.35 116.2-26.83 116.87-27.55ZM146.59-8.3L146.59-8.3Q147.47-7.71 147.47-6.26 147.47-4.81 147.08-3.71 146.69-2.61 145.72-1.66L145.72-1.66Q143.52 0.49 139.03 0.49L139.03 0.49Q133.8 0.49 131.07-3.37L131.07-3.37Q128.65-6.81 128.65-12.67L128.65-12.67Q128.65-18.58 131.92-21.95L131.92-21.95Q135.02-25.15 140.32-25.15L140.32-25.15Q144.01-25.15 146.08-23L146.08-23Q147.72-21.29 147.72-19.06 147.72-16.82 146.85-15.03 145.98-13.23 144.3-11.94L144.3-11.94Q140.83-9.25 134.61-9.11L134.61-9.11Q135.12-4.2 137.68-2.54L137.68-2.54Q138.61-1.95 140.15-1.95 141.69-1.95 143.42-3.56 145.15-5.18 146.59-8.3ZM134.46-12.18L134.46-11.43Q142.18-11.94 142.18-18.9L142.18-18.9Q142.18-21.51 140.61-22.41L140.61-22.41Q140.08-22.71 139.2-22.71 138.32-22.71 137.43-22.17 136.54-21.63 135.88-20.41L135.88-20.41Q134.46-17.75 134.46-12.18L134.46-12.18ZM168.17-26.1L168.17-26.1Q168.83-24.63 168.83-23.14 168.83-21.66 168.7-20.68 168.56-19.7 168.3-18.8L168.3-18.8Q167.69-16.75 166.56-15.65L166.56-15.65Q165.81-19.43 164.91-20.56 164.02-21.68 163.13-22.07 162.24-22.46 161.24-22.46 160.24-22.46 159.6-22.27 158.97-22.07 158.51-21.7L158.51-21.7Q157.46-20.9 157.46-19.87 157.46-18.85 157.97-18.1 158.48-17.36 159.32-16.71 160.17-16.06 161.24-15.45L161.24-15.45 163.44-14.21Q166.27-12.62 167.32-11.57L167.32-11.57Q169.39-9.5 169.39-7.2L169.39-7.2Q169.39-4.2 167.34-2.15L167.34-2.15Q164.76 0.49 159.58 0.49L159.58 0.49Q154.87 0.49 152.5-1.71L152.5-1.71Q151.82-2.34 151.52-2.98L151.52-2.98Q151.72-4.81 153.16-6.42L153.16-6.42Q154.55-7.98 155.87-8.23L155.87-8.23Q155.77-7.91 155.77-7.28 155.77-6.64 156.14-5.7 156.5-4.76 157.19-3.96L157.19-3.96Q158.73-2.1 160.65-2.1 162.58-2.1 163.49-2.98 164.39-3.86 164.39-4.98 164.39-6.1 163.88-6.86 163.36-7.62 162.52-8.28 161.68-8.94 160.61-9.55L160.61-9.55 158.41-10.79Q155.6-12.45 154.55-13.62L154.55-13.62Q152.45-15.97 152.45-18.73L152.45-18.73Q152.45-21.63 154.89-23.44L154.89-23.44Q157.21-25.15 160.68-25.15L160.68-25.15 164.98-24.85Q166.54-24.85 167.15-25.23 167.76-25.61 168.17-26.1ZM182.04-34.42L182.04-34.42Q181.53-32.54 181.53-29.92 181.53-27.29 181.64-26.56 181.75-25.83 181.99-25.39L181.99-25.39Q182.45-24.66 183.8-24.66L183.8-24.66 190.34-24.66Q190.34-23.29 189.68-22.56L189.68-22.56Q188.48-21.24 186.75-21.24L186.75-21.24Q185.9-21.24 185.24-21.48L185.24-21.48Q184.04-21.97 183.38-21.97 182.72-21.97 182.31-21.72 181.89-21.46 181.65-20.97L181.65-20.97Q181.21-20.09 181.21-17.14 181.21-14.18 181.39-11.08 181.57-7.98 182.31-5.9 183.04-3.81 184.53-2.76 186.02-1.71 188.63-1.71L188.63-1.71Q188.63-0.95 187.6 0.1L187.6 0.1Q187.34 0.39 187.14 0.49L187.14 0.49Q182.82 0.49 180.67-0.54L180.67-0.54Q178.21-1.76 177.16-4.88L177.16-4.88Q176.11-8.06 176.11-14.28L176.11-14.28Q176.11-19.73 175.81-20.72 175.52-21.7 175.28-22.02L175.28-22.02Q174.98-22.39 173.86-22.92L173.86-22.92Q175.37-24.07 176.86-27.2L176.86-27.2 178.08-29.76Q179.38-32.69 180.29-33.56 181.21-34.42 182.04-34.42ZM211.06-13.04L211.06-13.04 210.99-8.35Q210.99-3.98 211.8-2.39L211.8-2.39Q212.28-1.44 212.94-0.93L212.94-0.93 214.09 0 207.01 0 206.25-2.83Q203.5 0.49 198.39 0.49L198.39 0.49Q195.49 0.49 193.71-1.46L193.71-1.46Q192.14-3.22 192.14-5.62 192.14-8.01 193.28-9.79 194.41-11.57 196.27-12.74L196.27-12.74Q199.93-15.01 205.47-15.11L205.47-15.11 205.47-15.38Q205.47-21.31 203.64-22.34L203.64-22.34Q202.98-22.71 201.95-22.71 200.91-22.71 199.88-22.02 198.86-21.34 198.03-20.26L198.03-20.26Q196.37-18.09 195.66-15.14L195.66-15.14Q193.49-16.43 193.49-20.09L193.49-20.09Q193.49-21.58 193.88-23.44L193.88-23.44Q194.8-23.44 195.63-23.71L195.63-23.71 197.51-24.29Q200.27-25.15 202.91-25.15 205.55-25.15 207.12-24.37 208.7-23.58 209.57-22.05L209.57-22.05Q211.06-19.43 211.06-13.04ZM197.42-5.13Q197.42-3.61 198.11-2.78 198.81-1.95 199.86-1.95 200.91-1.95 201.88-2.5 202.86-3.05 203.64-4L203.64-4Q205.47-6.18 205.47-9.11L205.47-9.11 205.47-12.72Q202.06-12.4 199.83-10.45L199.83-10.45Q197.42-8.35 197.42-5.13L197.42-5.13ZM237.72-23.54L237.72-22.36 237.36-11.45Q237.36-4.79 238.53-2.29L238.53-2.29Q238.94-1.39 239.99 0L239.99 0 233.21 0Q232.64-1.66 232.47-4.2L232.47-4.2Q229.64 0.49 225.17 0.49L225.17 0.49Q222.1 0.49 220.46-1.81L220.46-1.81Q218.85-4.03 218.85-7.91L218.85-7.91 218.85-11.21Q218.85-12.3 218.85-13.45L218.85-13.45 218.8-15.67Q218.78-17.8 218.67-18.98 218.56-20.17 218.42-20.96 218.29-21.75 218.09-22.38 217.9-23 217.65-23.54L217.65-23.54 217.12-24.66 224.17-24.66Q224.2-24.27 224.2-23.93L224.2-23.93 224.2-23.22Q224.2-23.22 223.78-10.96L223.78-10.96Q223.78-7.37 224.25-6.08 224.71-4.79 225.36-4.22 226-3.66 227.08-3.66L227.08-3.66Q229.98-3.66 231.79-6.84L231.79-6.84Q232.28-7.74 232.59-8.67L232.59-8.67Q232.64-10.03 232.64-11.77L232.64-11.77Q232.64-20.68 231.33-23.54L231.33-23.54 230.79-24.66 237.75-24.66Q237.72-24.05 237.72-23.54L237.72-23.54ZM252.71 0L245.51 0Q246.63-3.86 246.63-13.26L246.63-13.26Q246.63-19.95 245.56-22.39L245.56-22.39Q245.12-23.39 243.99-24.66L243.99-24.66 252.66-24.66Q252.22-23.12 251.95-20.43L251.95-20.43Q254.25-23.32 258.35-24.51L258.35-24.51Q260.11-25.02 260.91-26.12L260.91-26.12Q261.72-24.19 261.72-22.8 261.72-21.41 261.57-20.23 261.43-19.04 261.13-17.92L261.13-17.92Q260.5-15.5 259.45-14.16L259.45-14.16Q258.54-18.92 256.64-19.73L256.64-19.73Q254.44-20.68 252.34-17.14L252.34-17.14Q251.9-16.41 251.61-15.58L251.61-15.58Q251.59-15.01 251.59-14.43 251.59-13.84 251.59-13.26L251.59-13.26Q251.59-3.86 252.71 0L252.71 0ZM283.15-13.04L283.15-13.04 283.08-8.35Q283.08-3.98 283.88-2.39L283.88-2.39Q284.37-1.44 285.03-0.93L285.03-0.93 286.18 0 279.1 0 278.34-2.83Q275.58 0.49 270.48 0.49L270.48 0.49Q267.58 0.49 265.79-1.46L265.79-1.46Q264.23-3.22 264.23-5.62 264.23-8.01 265.37-9.79 266.5-11.57 268.36-12.74L268.36-12.74Q272.02-15.01 277.56-15.11L277.56-15.11 277.56-15.38Q277.56-21.31 275.73-22.34L275.73-22.34Q275.07-22.71 274.03-22.71 272.99-22.71 271.97-22.02 270.94-21.34 270.11-20.26L270.11-20.26Q268.45-18.09 267.75-15.14L267.75-15.14Q265.57-16.43 265.57-20.09L265.57-20.09Q265.57-21.58 265.96-23.44L265.96-23.44Q266.89-23.44 267.72-23.71L267.72-23.71 269.6-24.29Q272.36-25.15 275-25.15 277.63-25.15 279.21-24.37 280.78-23.58 281.66-22.05L281.66-22.05Q283.15-19.43 283.15-13.04ZM269.5-5.13Q269.5-3.61 270.2-2.78 270.9-1.95 271.95-1.95 272.99-1.95 273.97-2.5 274.95-3.05 275.73-4L275.73-4Q277.56-6.18 277.56-9.11L277.56-9.11 277.56-12.72Q274.14-12.4 271.92-10.45L271.92-10.45Q269.5-8.35 269.5-5.13L269.5-5.13ZM297.06 0L290.06 0Q291.18-3.86 291.18-13.26L291.18-13.26Q291.18-19.95 290.01-22.39L290.01-22.39Q289.72-23 289.35-23.54L289.35-23.54 288.54-24.66 297.02-24.66Q296.65-23.44 296.53-22.36L296.53-22.36 296.33-20.61Q299.29-25.15 303.85-25.15L303.85-25.15Q306.81-25.15 308.47-22.85L308.47-22.85Q310.08-20.61 310.08-16.77L310.08-16.77 310.08-14.16Q310.08-7.45 310.2-5.96 310.32-4.47 310.39-3.69 310.47-2.91 310.57-2.29L310.57-2.29Q310.74-1.15 311.08 0L311.08 0 303.93 0Q305.05-3.86 305.05-13.26L305.05-13.26Q305.05-17.02 304.57-18.41 304.1-19.8 303.44-20.4 302.78-21 301.7-21L301.7-21Q299.73-21 298.11-19.43L298.11-19.43Q296.72-18.09 295.99-16.02L295.99-16.02Q295.94-15.36 295.94-14.65L295.94-14.65 295.94-13.26Q295.94-3.86 297.06 0L297.06 0ZM324.43-34.42L324.43-34.42Q323.92-32.54 323.92-29.92 323.92-27.29 324.03-26.56 324.14-25.83 324.38-25.39L324.38-25.39Q324.85-24.66 326.19-24.66L326.19-24.66 332.73-24.66Q332.73-23.29 332.07-22.56L332.07-22.56Q330.88-21.24 329.14-21.24L329.14-21.24Q328.29-21.24 327.63-21.48L327.63-21.48Q326.43-21.97 325.77-21.97 325.11-21.97 324.7-21.72 324.28-21.46 324.04-20.97L324.04-20.97Q323.6-20.09 323.6-17.14 323.6-14.18 323.78-11.08 323.97-7.98 324.7-5.9 325.43-3.81 326.92-2.76 328.41-1.71 331.02-1.71L331.02-1.71Q331.02-0.95 330 0.1L330 0.1Q329.73 0.39 329.53 0.49L329.53 0.49Q325.21 0.49 323.06-0.54L323.06-0.54Q320.6-1.76 319.55-4.88L319.55-4.88Q318.5-8.06 318.5-14.28L318.5-14.28Q318.5-19.73 318.2-20.72 317.91-21.7 317.67-22.02L317.67-22.02Q317.37-22.39 316.25-22.92L316.25-22.92Q317.77-24.07 319.25-27.2L319.25-27.2 320.48-29.76Q321.77-32.69 322.68-33.56 323.6-34.42 324.43-34.42Z" opacity="1" transform="matrix(1,0,0,1,0,0)" fill="#fbb04b" class="wordmark-text-0" data-fill-palette-color="primary" id="text-0"></path></svg></g></svg></g></svg></g></svg></g><g></g></svg></g></svg></g></svg></g><g mask="url(#f5357172-6d56-4f29-b8e8-c0e6383ee299)"><g transform="matrix(0.1105999097880018, 0, 0, 0.1105999097880018, 75.16, 1)"><svg xmlns="http://www.w3.org/2000/svg" xmlns:xlink="http://www.w3.org/1999/xlink" xml:space="preserve" version="1.1" style="shape-rendering:geometricPrecision;text-rendering:geometricPrecision;image-rendering:optimizeQuality;" viewBox="0 0 2217 2217" x="0" y="0" fill-rule="evenodd" clip-rule="evenodd" height="2217" width="2217" class="icon-none" data-fill-palette-color="accent" id="none"><g fill="#8a8d56" data-fill-palette-color="accent"><path class="" d="M1109 0C1721 0 2217 496 2217 1109 2217 1527 1985 1892 1643 2081L1641 2039V2036C1639 1985 1638 1936 1637 1891 1633 1748 1628 1591 1634 1448 1637 1381 1671 1362 1724 1316 1776 1271 1794 1246 1803 1175 1813 1102 1804 1042 1797 971 1791 903 1786 834 1780 767 1769 634 1752 490 1747 357H1715C1717 576 1713 796 1715 1015 1715 1048 1718 1081 1683 1081 1648 1082 1651 1051 1651 1019 1652 801 1647 574 1651 358L1616 356V1028C1617 1070 1614 1084 1568 1080 1546 1049 1552 1052 1552 1006V357L1518 356V937C1518 981 1537 1110 1470 1077 1448 1066 1455 1034 1455 1002V356L1420 357C1413 496 1350 1062 1363 1171 1366 1201 1373 1231 1386 1255 1398 1277 1477 1348 1498 1364 1552 1405 1534 1581 1534 1661 1533 1771 1531 1908 1526 2055L1523 2137C1395 2189 1255 2217 1109 2217 1013 2217 919 2205 831 2182L827 2113V2110C819 1929 817 1764 816 1652 816 1571 814 1486 817 1405 821 1294 972 1322 1065 1159 1099 1099 1115 1037 1112 959 1107 815 1039 605 959 496 930 457 876 392 833 371 801 356 764 352 728 360 655 376 621 420 586 468 553 515 522 564 495 624 418 797 353 1036 487 1202 531 1256 561 1271 629 1307 655 1321 685 1342 697 1360 718 1391 710 1434 711 1475 715 1632 711 1853 702 2072L701 2080V2091L699 2136V2139C289 1976 0 1576 0 1109 0 496 496 0 1109 0" fill="#8a8d56" data-fill-palette-color="accent"></path></g></svg></g></g></svg></g><defs></defs></svg><rect width="395.52" height="247.2" fill="none" stroke="none" visibility="hidden"></rect></g></svg></g></svg>