<svg version="1.2" xmlns="http://www.w3.org/2000/svg" viewBox="0 0 2000 1925" width="2000" height="1925">
	<title>purple-gradient-svg</title>
	<defs>
		<clipPath clipPathUnits="userSpaceOnUse" id="cp1">
			<path d="m0.63 1.37h1999.39v4498.63h-1999.39z"/>
		</clipPath>
		<linearGradient id="g1" x2="1" gradientUnits="userSpaceOnUse" gradientTransform="matrix(4825.119,286.784,-584.186,9828.886,-2417.477,2047.544)">
			<stop offset="0" stop-color="#b5ffff"/>
			<stop offset="1" stop-color="#b25df4"/>
		</linearGradient>
	</defs>
	<style>
		.s0 { fill: url(#g1) } 
		.s1 { fill: #f5f5f5 } 
	</style>
	<g id="Layer">
		<g id="Layer">
			<g id="Clip-Path" clip-path="url(#cp1)">
				<path id="Layer" class="s0" d="m0.6 1.4h1999.4v4498.6h-1999.4z"/>
			</g>
		</g>
		<path id="Layer" class="s1" d="m1106.3 1.4c39 174.5 76.5 311.7 106.8 422.6 106.1 387.7 124 453.2-193.7 662.5-28.6 18.9-56.4 39.2-83.3 60.8-206.6 166-356.8 410.2-414.2 715.9-57.5 305.7-22.4 672.8 141.7 1084.4 26.7 66.9 56.8 134.9 90.4 204.1 193.3 397.7 324.7 911.4 359.1 1348.3h-1.8c-34.4-436.6-165.7-949.8-358.8-1347.1-33.7-69.2-63.8-137.3-90.5-204.2-164.3-412.2-199.5-779.9-141.9-1086.1 57.6-306.2 208.1-551 415.1-717.3 26.8-21.6 54.7-41.9 83.4-60.8 316.3-208.4 298.4-273.6 192.8-659.8-30.3-111-67.9-248.5-106.9-423.3 0 0 1.8 0 1.8 0z"/>
		<path id="Layer" class="s1" d="m1190.1 1.4c32.5 156 63.9 281.3 89.8 384 98.2 391.2 114.8 457.2-206.9 656-29 17.9-57.2 37.2-84.5 57.9-209.8 159.2-364.8 398.4-428.4 702-63.6 303.7-35.7 671.9 120.1 1088.8 25.3 67.7 54 136.7 86.2 207 191.5 417.3 314.4 956.2 334.4 1402.9h-1.8c-20-446.4-142.8-984.8-334.1-1401.7-32.3-70.3-61-139.4-86.3-207.2-156-417.5-183.9-786.2-120.2-1090.4 63.7-304.2 218.9-543.9 429.2-703.3 27.3-20.8 55.5-40.1 84.6-58.1 320.3-197.9 303.8-263.7 206-653.2-25.9-102.9-57.4-228.4-89.9-384.7z"/>
		<path id="Layer" class="s1" d="m1271.7 1.4c26.7 138.8 52.8 252.5 74.5 347.2 90.4 394.3 105.7 460.9-219.9 648.9-29.4 17-57.9 35.4-85.6 55.2-213 152.2-372.7 386.2-442.3 687.6-69.6 301.5-49.1 670.5 98.3 1092.4 24 68.6 51.3 138.5 82.1 209.8 189.1 437.4 302.5 1002.2 307 1457.5h-1.8c-4.5-454.9-117.8-1019.3-306.8-1456.4-30.8-71.3-58.1-141.3-82.1-210-147.7-422.4-168.1-791.9-98.4-1093.9 69.7-302.1 229.8-536.6 443.1-689 27.7-19.8 56.3-38.2 85.8-55.2 324.1-187.3 308.9-253.6 218.9-646.2-21.8-94.9-47.9-208.8-74.7-347.9z"/>
		<path id="Layer" class="s1" d="m1351 1.4c21.7 122.9 43.1 225.4 61.1 312.2 82.5 397.1 96.5 464.2-232.8 641.4-29.7 16.1-58.6 33.5-86.7 52.3-215.9 145.1-380.2 373.8-455.8 672.9-75.6 299-62.5 668.5 76.4 1095.2 22.6 69.4 48.5 140.2 77.9 212.4 186.3 458.3 289.1 1049.8 277 1512.2h-1.8c12.1-462-90.6-1053.1-276.8-1511.1-29.4-72.3-55.3-143.2-77.9-212.6-139.2-427.2-152.3-797.3-76.5-1096.9 75.7-299.6 240.4-528.7 456.7-674.1 28.1-18.9 57.1-36.4 86.8-52.4 327.8-176.5 313.9-243.3 231.8-638.7-18.1-86.9-39.5-189.7-61.2-312.8 0 0 1.8 0 1.8 0z"/>
		<path id="Layer" class="s1" d="m1428.3 1.4c17.3 108.1 34.5 200 49.2 278.9 74.6 399.7 87.2 467.2-245.5 633.5-30 15.1-59.3 31.5-87.7 49.5-218.8 137.9-387.6 361.1-469.1 657.5-81.6 296.5-75.9 666.3 54.5 1097.4 21.2 70.1 45.7 141.7 73.6 215 183.1 479.8 274.1 1099 244.3 1566.8h-1.8c29.8-467.4-61.1-1086.2-244.1-1565.8-27.9-73.3-52.4-145-73.6-215.1-130.6-431.7-136.3-802.1-54.6-1099 81.7-297.1 250.8-520.7 470-658.9 28.5-17.9 57.8-34.5 87.9-49.5 331.2-165.6 318.6-232.8 244.4-630.9-14.8-79-32-171.1-49.4-279.4 0 0 1.9 0 1.9 0z"/>
		<path id="Layer" class="s1" d="m1503.5 1.4c13.6 94.5 27.1 176.1 38.9 247.3 66.6 402 77.8 469.9-258 625.2-30.4 14.1-60 29.6-88.7 46.6-221.5 130.6-394.7 348.2-482.1 641.8-87.5 293.7-89.1 663.6 32.6 1098.9 19.8 70.7 42.9 143.1 69.3 217.3 177.2 496.3 255.4 1134.9 210.2 1604.7q-0.9 8.4-1.7 16.8h-1.8q0.9-8.5 1.7-17.1c45.2-469.4-33-1107.5-210-1603.5-26.5-74.2-49.6-146.7-69.4-217.4-121.9-435.9-120.2-806.3-32.6-1100.5 87.6-294.2 261.2-512.2 483-643.1 28.8-17 58.5-32.6 88.9-46.6 334.3-154.6 323.1-222.3 256.8-622.6-11.8-71.3-25.3-153.1-39-247.8z"/>
		<path id="Layer" class="s1" d="m1576.7 1.4c10.4 81.9 20.8 153.8 30.1 217.4 58.5 404.1 68.4 472.4-270.5 616.5-30.6 13.1-60.5 27.6-89.6 43.6-223.9 123.3-401.4 335.1-494.7 625.7-93.3 290.8-102.3 660.5 10.7 1099.6 18.4 71.4 40 144.6 64.9 219.5 167.2 502.1 232.7 1143.1 178.1 1611.2q-3.9 33.1-8.6 65.1h-1.8q4.7-32.1 8.6-65.5c54.6-467.7-10.8-1108.2-177.9-1609.9-25-75-46.6-148.3-65-219.7-113.2-439.7-104.1-809.9-10.7-1101.1 93.5-291.3 271.3-503.5 495.7-627 29.2-16.1 59.1-30.6 89.8-43.6 337.3-143.6 327.5-211.6 269.2-614-9.2-63.7-19.7-135.8-30.1-217.8 0 0 1.8 0 1.8 0z"/>
		<path id="Layer" class="s1" d="m1648 1.4c7.8 70.2 15.5 133 22.5 189.2 50.5 405.9 59 474.5-282.6 607.4-30.9 12-61.1 25.6-90.5 40.6-226.3 115.9-408 321.7-507 609.2-99.1 287.6-115.5 656.8-11.3 1099.6 17 71.9 37.1 145.8 60.6 221.5 157.1 507.4 209.7 1150.4 145.8 1616.6-5.4 39.5-11.7 77.7-18.8 114.5h-1.9c7.2-36.9 13.5-75.3 18.9-114.9 63.9-465.8 11.3-1108.3-145.7-1615.3-23.5-75.9-43.6-149.8-60.6-221.8-104.3-443.3-87.9-813.1 11.3-1101.1 99.3-288.1 281.3-494.3 508.1-610.4 29.5-15.1 59.7-28.7 90.6-40.7 340.1-132.4 331.6-200.6 281.4-604.8-7-56.4-14.8-119.2-22.6-189.6 0 0 1.8 0 1.8 0z"/>
		<path id="Layer" class="s1" d="m1717.4 1.4c5.6 59.6 11.2 113.6 16.3 162.7 42.3 407.4 49.5 476.2-294.7 597.8-31 11-61.5 23.6-91.2 37.6-228.6 108.4-414.3 308.2-519.1 592.3-104.7 284.2-128.5 652.8-33.1 1098.8 15.4 72.5 34.1 147 56 223.5 147 512.4 186.8 1156.9 113.5 1620.8-9.1 58.1-20.1 113.3-32.8 165.1h-1.9c12.8-51.9 23.8-107.3 33-165.5 73.2-463.6 33.4-1107.5-113.4-1619.6-22-76.5-40.7-151.1-56.2-223.6-95.5-446.7-71.6-815.8 33.3-1100.5 105-284.7 291.1-484.8 520.1-593.4 29.7-14.1 60.2-26.7 91.3-37.7 342.7-121.1 335.6-189.6 293.4-595.3-5.1-49.2-10.7-103.3-16.3-163 0 0 1.8 0 1.8 0z"/>
		<path id="Layer" class="s1" d="m52.5 4500q-26.8-25.6-51.9-48.7v-2.8c17.7 16.2 36 33.4 54.9 51.5zm1732.6-4498.6c3.7 49.8 7.6 95.6 11.1 137.7 34.2 408.8 39.9 477.8-306.5 588-31.3 10-62 21.5-92 34.6-230.6 100.8-420.3 294.4-530.7 574.9-110.4 280.7-141.5 648.4-55.1 1097.4 14 73 31.2 148.1 51.6 225.3 136.7 517.1 163.6 1162.7 81.1 1624-13.9 78-31 150.7-51.2 216.7h-1.9c20.3-66.1 37.4-139 51.4-217.2 82.4-461 55.5-1106.1-81.1-1622.8-20.4-77.3-37.6-152.4-51.6-225.4-86.6-449.6-55.4-817.9 55.2-1099 110.6-281.1 300.6-475.1 531.8-576.1 30-13.1 60.7-24.6 92-34.6 345-109.8 339.2-178.5 305.2-585.5-3.5-42.2-7.4-88.1-11.1-138 0 0 1.8 0 1.8 0z"/>
		<path id="Layer" class="s1" d="m108.1 4500c-38.1-39.8-73.9-76.3-107.5-109.5v-2.9c34.4 34 71.2 71.5 110.3 112.4zm1743-4498.6c2.3 40.8 4.7 79 7 114.5 26 409.7 30.4 478.9-318.2 577.6-31.4 8.9-62.3 19.5-92.6 31.6-232.6 93.1-426 280.4-542 557.2-116 276.9-154.4 643.5-77 1095.2 12.6 73.4 28.3 149 47.1 226.9 126.3 521.4 140.3 1167.7 48.7 1626.1-20 99.8-44.9 190.7-74.8 269.5h-2c30-78.9 55.1-170 75.1-270 91.5-458.1 77.5-1103.9-48.7-1624.9-18.9-77.9-34.5-153.6-47.1-227.1-77.6-452.3-39-819.4 77.1-1096.8 116.2-277.4 310.1-465 543.1-558.3 30.3-12.2 61.2-22.7 92.7-31.6 347.1-98.4 342.7-167.3 316.8-575.3-2.2-35.5-4.7-73.7-7-114.6 0 0 1.8 0 1.8 0z"/>
		<path id="Layer" class="s1" d="m155 4500c-55.8-62.7-107.2-119.2-154.4-169.1v-2.9c48 50.6 100.3 108.1 157.2 172zm1760.2-4498.6c1.3 32.7 2.6 63.6 3.9 92.8 17.8 410.4 20.8 479.7-329.6 566.9-31.6 7.9-62.7 17.4-93.2 28.5-234.4 85.5-431.5 266.3-552.9 539.2-121.5 273-167.2 638.2-98.9 1092.3 11.2 73.8 25.3 149.9 42.6 228.4 115.8 525.4 117 1171.9 16.2 1627.2-27.5 124-62.5 233.9-104.9 323.3h-2c42.5-89.4 77.6-199.5 105.2-324 100.7-454.9 99.5-1100.9-16.2-1625.9-17.4-78.5-31.5-154.7-42.6-228.6-68.5-454.7-22.6-820.4 99-1093.8 121.7-273.5 319.2-454.7 554.1-540.3 30.5-11.1 61.6-20.6 93.3-28.5 348.9-86.9 345.9-155.9 328.1-564.6-1.2-29.2-2.6-60.1-3.9-92.9 0 0 1.8 0 1.8 0z"/>
		<path id="Layer" class="s1" d="m195.4 4500q-7.6-8.7-15.3-17.9c-65.5-78.2-125.2-148.2-179.5-209.6v-3c54.7 61.7 114.8 132.1 180.7 210.9q8.4 10.1 16.8 19.6c0 0-2.7 0-2.7 0zm1782.5-4498.6c0.6 25.3 1.1 49.5 1.7 72.7 9.6 410.8 11.2 480.2-340.8 555.9-31.8 6.8-63 15.3-93.7 25.4-236.1 77.6-436.7 251.9-563.6 520.7-126.9 268.9-179.9 632.4-120.6 1088.7 9.7 74.1 22.3 150.7 38 229.7 105.3 529.1 93.5 1175.4-16.3 1627.2-37 152.1-85 282.1-143.5 378.3h-2.3c58.7-96.1 107-226.4 144.1-379 109.7-451.4 121.5-1097.3 16.3-1625.9-15.8-79.1-28.4-155.7-38-229.9-59.4-456.9-6.3-820.9 120.8-1090.3 127.1-269.4 328.2-443.9 564.6-521.8 30.7-10.1 62.1-18.6 93.9-25.4 350.5-75.3 348.9-144.4 339.3-553.6-0.5-23.1-1.1-47.4-1.6-72.7 0 0 1.7 0 1.7 0z"/>
		<path id="Layer" class="s1" d="m240.7 4500c-28.8-27.1-58.2-59.4-88.4-97.3-54.5-68.7-105-131.2-151.7-187.3v-3.1c47 56.5 97.9 119.5 153 188.8 30.7 38.7 60.8 71.5 90.1 98.9 0 0-3 0-3 0zm1759.3-4048.8c-42.6 81.5-130.8 115.9-312.6 148.8-31.9 5.7-63.3 13.2-94.2 22.3-237.5 69.8-441.6 237.4-573.7 502-132.2 264.6-192.5 626.2-142.3 1084.3 8.1 74.4 19.2 151.4 33.4 230.9 94.7 532.3 70 1178.1-48.8 1626.1-45.9 172.9-105.8 316.4-178.2 412.7q-8.5 11.3-17.3 21.7h-2.6q9.4-11.1 18.6-23.3c72.3-96 132-239.2 177.8-411.8 118.7-447.7 143.4-1092.9 48.7-1624.9-14.2-79.6-25.2-156.6-33.4-231.1-50.2-458.6 10.1-820.8 142.6-1085.9 132.4-265.1 336.9-433 574.8-503 30.9-9.1 62.4-16.5 94.4-22.3 183.3-33.2 271-67.9 312.8-151.3 0 0 0 4.8 0 4.8z"/>
		<path id="Layer" class="s1" d="m309.2 4500c-58.4-34.7-120-92.9-184.2-178-44.1-58.5-85.5-112.6-124.4-162.3v-3.2c39.2 50.1 81.1 104.8 125.7 163.9 65.4 86.6 127.9 145.3 187.2 179.6zm1690.8-4008.8c-52.7 39.4-135 60.8-264.5 79.9-32 4.8-63.6 11.2-94.6 19.2-238.8 62-446.2 222.8-583.6 482.9-137.5 260.2-204.9 619.7-163.9 1079.3 6.7 74.7 16.2 152 28.7 231.9 84.1 535.3 46.6 1180-81.2 1624-49.2 171.3-112 312.8-186.4 406.6-28.1 35.5-57.8 64.1-89.2 85h-3.9c32.3-20.9 63-50.1 91.9-86.6 74.2-93.6 136.8-234.8 186-405.8 127.6-443.6 165.1-1087.8 81.1-1622.8-12.6-80-22.1-157.3-28.8-232.1-41.1-460.1 26.5-820.2 164.2-1080.8 137.7-260.6 345.5-421.7 584.7-483.8 31.1-8.1 62.7-14.5 94.8-19.2 130-19.2 212.3-40.8 264.7-80.7 0 0 0 3 0 3z"/>
		<path id="Layer" class="s1" d="m2000 498.5c-51.6 21.1-121.6 34-217 44.9-32.1 3.7-63.8 9.1-95 16.1-240 54.1-450.5 208-593 463.5-142.6 255.5-217.3 612.7-185.4 1073.5 5.1 74.8 13.1 152.4 24.1 232.8 73.4 537.9 22.9 1181.1-113.6 1620.7-52.7 169.7-118.2 309.1-194.5 400.4-76.3 91.5-163.3 134.8-258.9 112.1-83.5-19.8-173.5-90-268.6-222.6-34.1-47.6-66.6-92.4-97.5-134.4v-3.3c31.3 42.5 64.2 87.9 98.8 136.1 94.8 132.2 184.5 202.2 267.7 221.9 94.9 22.5 181.4-20.5 257.3-111.5 76-91.1 141.4-230.1 194-399.5 136.5-439.3 186.8-1082 113.5-1619.5-10.9-80.4-18.9-158.1-24.1-233-31.9-461.4 42.9-819.1 185.7-1075.1 142.8-256 353.8-410.2 594.2-464.4 31.2-7 62.9-12.4 95.1-16 95.7-11 165.7-24 217.2-45.3 0 0 0 2.6 0 2.6z"/>
		<path id="Layer" class="s1" d="m2000 493.3c-45.3 10.8-101.1 18-170.2 23.6-32.2 2.6-63.9 6.9-95.3 12.9-240.9 46.2-454.4 193-602 443.7-147.7 250.8-229.4 605.4-206.8 1067.1 3.7 75 10.1 152.8 19.5 233.5 62.6 540.2-0.7 1181.5-145.9 1616.5-56.1 167.9-124.4 305-202.4 393.8-78.1 88.9-166 129.3-261.1 103.5-83.1-22.6-171.7-95.7-264.1-231.4-24.5-36.1-48.2-70.6-71.1-103.5v-3.5c23.3 33.6 47.4 68.7 72.5 105.5 92.1 135.3 180.3 208.2 263.1 230.7 94.5 25.6 181.8-14.6 259.5-103 77.8-88.6 146-225.4 201.9-393 145.2-434.6 208.4-1075.5 145.8-1615.3-9.4-80.7-15.8-158.6-19.5-233.7-22.6-462.2 59.2-817.4 207.1-1068.5 147.9-251.3 361.9-398.4 603.3-444.7 31.3-6 63.2-10.3 95.4-12.9 69.2-5.6 125.1-12.8 170.3-23.7 0 0 0 2.4 0 2.4z"/>
		<path id="Layer" class="s1" d="m0.6 2802.4c170.9-237 370.7-403.2 567-461 137.1-40.3 245.3-28.4 331.2-19 223.1 24.4 294.8 32.2 329.6-948 24.2-679.4 59.2-1111.7 169.5-1353.3q4.6-10.1 9.4-19.7h3.9q-5.3 10.6-10.4 21.8c-109.9 240.9-144.9 672.7-169 1351.4-35 984.6-107.6 976.7-333.3 952-85.7-9.4-193.6-21.2-330.1 19-196.6 57.8-396.8 224.9-567.8 463.1z"/>
		<path id="Layer" class="s1" d="m0.6 2950.9c176-274.4 390.4-470.2 602.6-538 136.4-43.6 244.8-34.3 330.9-27 223.3 19 295.1 25.1 315.7-955.7 14.3-679.8 43.1-1113 149.8-1357.2 11.3-26 23.6-49.8 36.8-71.6h4.2c-13.7 22.3-26.4 46.9-38.1 73.7-106.4 243.4-135.1 676-149.4 1355.2-20.6 985.3-93.3 979.1-319.3 959.9-85.8-7.4-193.9-16.6-329.8 26.9-212.5 67.9-427.4 264.7-603.4 540.6z"/>
		<path id="Layer" class="s1" d="m0.6 3110.6c179.1-316.8 408.9-547 638.2-626.1 135.8-46.9 244.3-40.3 330.4-35 223.6 13.6 295.5 18 301.8-963.1 4.4-680.1 26.9-1113.8 130-1360.6 20.3-48.6 43.8-89.9 70.8-124.4h4.8c-27.9 34.8-51.9 76.8-72.7 126.5-102.8 245.9-125.2 679.1-129.5 1358.5-6.4 985.6-79.1 981.2-305.3 967.4-85.9-5.3-194.2-11.9-329.4 34.8-229.8 79.3-460.1 310.8-639.1 629.3z"/>
		<path id="Layer" class="s1" d="m0.6 3284.4c179.4-365.3 425.6-636.2 673.9-728.3 135.1-50.2 243.6-46.1 329.8-43 223.8 8.3 295.8 11 287.8-970.1-5.5-680.1 10.6-1114.3 110.2-1363.5 30.4-76 68.5-134.8 116.1-178.1h5.9c-49.1 43.2-88.1 102.6-119.1 180.1-99.2 248.3-115.3 682-109.8 1361.4 8 985.6-64.8 982.9-291.1 974.5-86-3.2-194.3-7.2-328.9 42.8-248.8 92.3-495.6 364.9-674.8 732.2z"/>
		<path id="Layer" class="s1" d="m0.6 3476.9q18.1-43.5 37.4-85.4c174.7-379.2 421-664 672.2-763.8 134.4-53.4 243-52 329.2-50.8 223.8 2.9 295.8 3.8 273.6-977-15.4-679.8-5.6-1114.3 90.3-1365.8 42.8-112.1 102.6-187.8 184.7-232.7h8.9c-85.4 43.9-147 120.1-190.6 234.6-95.6 250.7-105.4 684.7-90 1363.8 22.4 985.2-50.5 984.3-276.9 981.3-86-1.1-194.4-2.5-328.2 50.7-250.4 99.5-496.1 383.5-670.3 761.9-13.9 30.1-27.3 60.9-40.3 92.2z"/>
		<path id="Layer" class="s1" d="m1954 1.4q22.5 2.3 46 5.4v4.3c-34.3-4.6-67-7.9-98.2-9.7 0 0 52.2 0 52.2 0zm-1953.4 3695.2c25.5-75.2 53.8-147.8 84.5-217.4 169.1-383.3 411.2-674 661-779.8 133.5-56.6 242.1-57.8 328.3-58.8 223.9-2.4 295.9-3.2 259.4-983.3-25.3-679.3-21.8-1114 70.4-1367.8 64-176.1 170.5-265.1 339.5-288.1h41.9c-192 13.6-309.9 101.5-378.4 289.9-91.9 253-95.4 687.1-70.1 1365.8 36.6 984.5-36.2 985.3-262.6 987.8-86 1-194.4 2.2-327.4 58.5-248.9 105.5-490.4 395.5-659.1 777.9-31.9 72.2-61.1 147.8-87.4 226 0 0 0-10.7 0-10.7z"/>
		<path id="Layer" class="s1" d="m0.6 3962.6c35-139.2 79.6-272.2 131.8-395.9 163.5-387.3 401.4-683.8 649.5-795.6 132.7-59.8 241.3-63.6 327.5-66.6 223.8-7.9 295.7-10.4 245-989.4-35.2-678.6-38-1113.3 50.5-1369.3 88.4-255.4 267.3-332.8 595.1-296.6v4.3c-326.3-36.1-504.4 40.6-592 294.1-88.3 255.1-85.4 689.3-50.3 1367.2 51 983.4-21.8 986-248.2 994-86 3-194.3 6.8-326.5 66.3-247.3 111.5-484.6 407.2-647.7 793.6-53.7 127.3-99.3 264.4-134.7 408z"/>
		<path id="Layer" class="s1" d="m0.6 4349.5c31.3-247.8 94.4-484.7 179.4-695.6 157.9-391.2 391.4-693.3 637.9-811 131.8-63 240.3-69.4 326.4-74.5 223.6-13.2 295.5-17.5 230.6-995.1-45.1-677.7-54.2-1112.2 30.6-1370.2 84.9-258.6 263.8-339.9 594.5-310.6v4.3c-329.2-29.3-507.2 51.4-591.5 307.9-84.5 257.2-75.3 691.3-30.3 1368.2 65.2 982.1-7.5 986.4-233.7 999.8-86 5.1-194.2 11.5-325.5 74.2-245.7 117.4-478.6 418.7-636 809-88 218.2-152.5 464.2-182.4 721.4z"/>
		<path id="Layer" class="s1" d="m52.7 4500c24.3-269.9 86.7-529.3 175.3-759.1 152.1-394.9 381.2-702.5 625.9-826.2 130.8-66.1 239.2-75.2 325.3-82.3 223.4-18.6 295.2-24.6 216-1000.5-54.9-676.4-70.3-1110.7 10.7-1370.7 81.2-260.7 258.9-346.3 590.3-324.8q1.9 0.1 3.8 0.2v4.3q-2-0.1-4-0.2c-329.7-21.4-506.4 63.5-587 322.1-80.8 259.1-65.3 692.9-10.5 1368.6 79.6 980.3 6.9 986.4-219.1 1005.2-85.8 7.2-193.9 16.2-324.3 82.1-243.9 123.2-472.4 430.1-624.2 824.1-88.3 229.3-150.6 488-174.8 757.2z"/>
		<path id="Layer" class="s1" d="m120.3 4500c25.6-237.9 80.3-466.5 155.9-672.3 146.3-398.5 370.9-711.6 613.8-841.2 129.8-69.2 238.1-80.8 324-90.1 223.1-24 294.8-31.7 201.5-1005.5-64.7-675-86.5-1108.8-9.3-1370.7 77.4-262.6 253.9-352.4 585.5-338.9q4.2 0.1 8.3 0.3v4.2q-4.2-0.1-8.4-0.3c-330-13.4-505.5 75.7-582.3 336.2-77 261.1-55.2 694.4 9.5 1368.7 93.7 978.2 21.2 986-204.5 1010.3-85.7 9.2-193.7 20.8-323.1 89.8-242.1 129.1-466 441.4-612 839-75.4 205.3-130 433.3-155.5 670.5z"/>
		<path id="Layer" class="s1" d="m188.4 4500c25.6-206.2 72.8-404.5 136.2-585.8 140.5-402 360.5-720.4 601.5-855.8 128.8-72.3 236.9-86.6 322.7-97.9 222.6-29.3 294.3-38.7 186.8-1010.1-74.5-673.4-102.6-1106.6-29.2-1370.3 73.6-264.4 248.7-358.4 580.4-352.9q6.6 0.1 13.2 0v4.3q-6.6 0-13.2-0.1c-330.1-5.5-504.3 87.9-577.3 350.1-73.2 262.9-45.1 695.6 29.4 1368.3 107.9 975.8 35.5 985.3-189.8 1015-85.6 11.3-193.3 25.5-321.7 97.5-240.2 135-459.5 452.6-599.7 853.6-63.2 180.8-110.3 378.6-136 584.1z"/>
		<path id="Layer" class="s1" d="m256.9 4500c24.6-174.8 64.6-343.3 116.5-499.6 134.6-405.2 350-728.9 588.9-870 127.8-75.5 235.6-92.3 321.2-105.7 222.2-34.7 293.7-45.8 172.1-1014.5-84.3-671.4-118.7-1103.8-49.1-1369.3 69.7-266.1 243.4-364.4 575.2-366.8q9.2-0.1 18.3-0.4v4.3q-9.1 0.3-18.3 0.3c-330.2 2.5-502.9 100-572.1 364-69.3 264.6-35 696.5 49.3 1367.3 122.1 973 49.8 984.3-175 1019.4-85.4 13.3-192.9 30.1-320.2 105.2-238.2 140.7-452.9 463.6-587.3 867.9-51.7 155.8-91.5 323.7-116.1 497.9z"/>
		<path id="Layer" class="s1" d="m325.7 4500c22.7-143.8 55.5-282.8 96.7-413.6 128.7-408.4 339.3-737.3 576.2-884.1 126.6-78.5 234.2-97.9 319.6-113.3 221.7-40.1 292.9-52.9 157.3-1018.5-94.1-669.3-134.7-1100.8-69.1-1367.9 65.9-267.7 238.1-370.1 569.8-380.6q12-0.4 23.8-1.1v4.2q-11.8 0.8-23.7 1.2c-330.1 10.4-501.4 112-566.7 377.6-65.4 266.2-24.8 697.2 69.1 1365.9 136.3 969.9 64.2 982.9-160.1 1023.4-85.1 15.4-192.4 34.8-318.6 113-236.1 146.3-446.1 474.3-574.5 881.8-41.1 130.3-73.8 268.8-96.4 412z"/>
		<path id="Layer" class="s1" d="m395 4500c19.6-113.2 45.4-223.1 76.7-327.9 122.8-411.5 328.6-745.3 563.2-897.8 125.5-81.5 232.7-103.5 317.9-121 221.1-45.4 292.2-59.9 142.5-1022.1-103.8-666.9-150.7-1097.4-88.9-1366 61.9-269.2 232.6-375.8 564.1-394.2q14.9-0.8 29.5-2.3v4.3q-14.5 1.4-29.4 2.3c-329.8 18.3-499.6 124-561.1 391.1-61.5 267.8-14.6 697.8 89 1364 150.4 966.5 78.5 981.2-145.2 1027.1-84.9 17.4-191.9 39.4-316.9 120.6-233.9 152-439.1 485-561.6 895.5-31.1 104.4-56.9 213.7-76.4 326.4 0 0-3.4 0-3.4 0z"/>
	</g>
</svg>